<svg xmlns="http://www.w3.org/2000/svg" version="1.1" xmlns:xlink="http://www.w3.org/1999/xlink" xmlns:svgjs="http://svgjs.dev/svgjs" width="1000" height="2205" viewBox="0 0 1000 2205"><g transform="matrix(1,0,0,1,-0.07349834907751074,0.8927125506072571)"><svg viewBox="0 0 112 247" data-background-color="#ffffff" preserveAspectRatio="xMidYMid meet" height="2205" width="1000" xmlns="http://www.w3.org/2000/svg" xmlns:xlink="http://www.w3.org/1999/xlink"><g id="tight-bounds" transform="matrix(1,0,0,1,0.008231815096678474,-0.09999999999999432)"><svg viewBox="0 0 111.98353636980661 247.2" height="247.2" width="111.98353636980661"><g><svg viewBox="0 0 167.9710491803279 370.79060640000006" height="247.2" width="111.98353636980661"><g><svg viewBox="0 0 167.9710491803279 370.79060640000006" height="370.79060640000006" width="167.9710491803279"><g id="textblocktransform"><svg viewBox="0 0 167.9710491803279 370.79060640000006" height="370.79060640000006" width="167.9710491803279" id="textblock"><g><rect width="167.9710491803279" height="247.20000000000005" fill="none" stroke-width="9.018103199999999" stroke="#0063db" data-fill-palette-color="none" data-stroke-palette-color="tertiary"></rect><rect width="167.9710491803279" height="123.59060640000003" y="247.20000000000005" fill="#0063db" data-fill-palette-color="tertiary"></rect></g><g><svg viewBox="0 0 167.9710491803279 247.20000000000005" height="247.20000000000005" width="167.9710491803279"><g transform="matrix(1,0,0,1,23.607599999999998,23.607600000000012)"><svg width="120.75584918032789" viewBox="3.8 -36.55 22.099999999999998 36.599999999999994" height="199.98480000000004" data-palette-color="#0063db"><path d="M5.45 0L5.45 0Q4.8 0 4.3-0.33 3.8-0.65 3.8-1.3L3.8-1.3 3.8-35.35Q3.8-36 4.3-36.27 4.8-36.55 5.45-36.55L5.45-36.55Q6.05-36.55 6.58-36.27 7.1-36 7.1-35.35L7.1-35.35 7.1-17.65 21.55-36.05Q21.9-36.55 22.6-36.55L22.6-36.55Q23-36.55 23.43-36.3 23.85-36.05 24.13-35.68 24.4-35.3 24.4-34.85L24.4-34.85Q24.4-34.7 24.35-34.48 24.3-34.25 24.15-34.1L24.15-34.1 13.4-20.75 25.7-2.25Q25.9-1.95 25.9-1.6L25.9-1.6Q25.9-1.15 25.63-0.78 25.35-0.4 24.93-0.18 24.5 0.05 24 0.05L24 0.05Q23.65 0.05 23.33-0.13 23-0.3 22.75-0.65L22.75-0.65 11.2-18 7.1-12.8 7.1-1.3Q7.1-0.65 6.58-0.33 6.05 0 5.45 0Z" opacity="1" transform="matrix(1,0,0,1,0,0)" fill="#0063db" class="wordmark-text-0" data-fill-palette-color="primary" id="text-0"></path></svg></g></svg></g></svg></g></svg></g></svg></g><defs></defs></svg><rect width="111.98353636980661" height="247.2" fill="none" stroke="none" visibility="hidden"></rect></g></svg></g></svg>